<?xml version="1.0" encoding="utf-8"?>
<!-- Generator: Adobe Illustrator 16.0.0, SVG Export Plug-In . SVG Version: 6.00 Build 0)  -->
<!DOCTYPE svg PUBLIC "-//W3C//DTD SVG 1.1//EN" "http://www.w3.org/Graphics/SVG/1.1/DTD/svg11.dtd">
<svg version="1.1" id="Layer_1" xmlns="http://www.w3.org/2000/svg" xmlns:xlink="http://www.w3.org/1999/xlink" x="0px" y="0px"
	 width="24px" height="24px" viewBox="0 0 24 24" enable-background="new 0 0 24 24" xml:space="preserve">
<path d="M6.761,17.949c-2.237,0-4.055-1.818-4.055-4.055c0-0.685,0.169-1.332,0.473-1.893l-0.986-0.987
	c-0.527,0.832-0.838,1.818-0.838,2.879c0,2.985,2.419,5.405,5.406,5.405v2.027l2.703-2.703l-2.703-2.703V17.949z"/>
<path d="M17.241,6.052c2.235,0,4.055,1.817,4.055,4.055c0,0.682-0.17,1.331-0.476,1.891l0.988,0.986
	c0.526-0.832,0.838-1.816,0.838-2.877c0-2.987-2.42-5.407-5.405-5.407V2.672l-2.704,2.702l2.704,2.705V6.052z"/>
<g enable-background="new    ">
	<path d="M6.86,12.345l-2.482,3.743H3.742l2.807-4.186l-2.807-4.21h0.66l2.482,3.73l2.495-3.73h0.635l-2.818,4.186l2.818,4.21h-0.66
		L6.86,12.345z"/>
	<path d="M11.325,7.692h0.552v8.396h-0.552V7.692z"/>
	<path d="M12.777,7.692h0.588l3.022,7.712l3.022-7.712h0.576l-3.287,8.396h-0.646L12.777,7.692z"/>
</g>
<path fill="none" d="M0,0h24v24H0V0z"/>
</svg>
